# xmcd
#
# Track frame offsets:
#	150
#	18565
#	37513
#	53658
#	66203
#	82470
#	99685
#	136745
#	154290
#	173008
#	195370
#	210295
#	230283
#	249908
#
# Disc length: 3657
#
# Revision: 2
# Processed by: cddbd v1.5.1PL0 Copyright (c) Steve Scherf et al.
# Submitted via: CDex 1.51
# Normalized: r0:TSWAP
#
DISCID=aa0e470e
DTITLE=Mozart 40 -Tthe Shekinah Group Players - DiJazz Clasic
DYEAR=1993
DGENRE=Jazz
TTITLE0=Mozart - Mozart 40
TTITLE1=Mozart - Turkish Dance
TTITLE2=Tschaikowsky - Piano Concerto
TTITLE3=J. Brahms - Hungarian Dances No.5
TTITLE4=L.Van Beethoven - Fur Elise
TTITLE5=Anton Rubinstein - Melody In F
TTITLE6=R. Shuman - Traumerei
TTITLE7=F. Mendelssohn - Wedding March
TTITLE8=J.S. Bach - Bourre
TTITLE9=Shubert - Ave Maria
TTITLE10=Tschaikowsky - Dance Des Mirlitons
TTITLE11=J.S. Bach - Gavotte In G
TTITLE12=F. Mandelssohn - Auf Flugen Ddes Gesanges
TTITLE13=Antonín Dvoøák - Humoreske Op. 101 No. 7
EXTD=YEAR: 1993
EXTT0=
EXTT1=
EXTT2=
EXTT3=
EXTT4=
EXTT5=
EXTT6=
EXTT7=
EXTT8=
EXTT9=
EXTT10=
EXTT11=
EXTT12=
EXTT13=
PLAYORDER=
